<mxfile host="app.diagrams.net" modified="2022-06-30T14:03:28.019Z" agent="5.0 (Windows NT 10.0; Win64; x64) AppleWebKit/537.36 (KHTML, like Gecko) Chrome/102.0.0.0 Safari/537.36" etag="P8XMfHxY6zF1oOblMqSw" version="18.2.0" type="github">
  <diagram id="QXGcT9UggSGekBvjjp9c" name="Page-1">
    <mxGraphModel dx="1400" dy="762" grid="1" gridSize="10" guides="1" tooltips="1" connect="1" arrows="1" fold="1" page="1" pageScale="1" pageWidth="827" pageHeight="1169" background="none" math="0" shadow="0">
      <root>
        <mxCell id="0" />
        <mxCell id="1" parent="0" />
        <mxCell id="QWG24ldM00-je0MgfPXb-1" value="HPA&lt;br&gt;Controller" style="rounded=0;whiteSpace=wrap;html=1;sketch=1;fillStyle=auto;fontFamily=Comic Sans MS;fillColor=#dae8fc;strokeColor=#6c8ebf;" parent="1" vertex="1">
          <mxGeometry x="270" y="350" width="120" height="50" as="geometry" />
        </mxCell>
        <mxCell id="QWG24ldM00-je0MgfPXb-3" value="Deployment" style="rounded=0;whiteSpace=wrap;html=1;sketch=1;fillStyle=auto;fontFamily=Comic Sans MS;fillColor=#dae8fc;strokeColor=#6c8ebf;" parent="1" vertex="1">
          <mxGeometry x="430" y="250" width="120" height="50" as="geometry" />
        </mxCell>
        <mxCell id="QWG24ldM00-je0MgfPXb-8" value="" style="endArrow=classic;html=1;rounded=0;fontFamily=Comic Sans MS;entryX=0;entryY=0.5;entryDx=0;entryDy=0;sketch=1;fillColor=#dae8fc;strokeColor=#6c8ebf;" parent="1" target="QWG24ldM00-je0MgfPXb-3" edge="1">
          <mxGeometry width="50" height="50" relative="1" as="geometry">
            <mxPoint x="390" y="380" as="sourcePoint" />
            <mxPoint x="440" y="330" as="targetPoint" />
          </mxGeometry>
        </mxCell>
        <mxCell id="QWG24ldM00-je0MgfPXb-9" value="computeReplicas&lt;br&gt;Formetrics" style="ellipse;whiteSpace=wrap;html=1;sketch=1;fillStyle=auto;fontFamily=Comic Sans MS;fillColor=#dae8fc;strokeColor=#6c8ebf;" parent="1" vertex="1">
          <mxGeometry x="430" y="410" width="120" height="60" as="geometry" />
        </mxCell>
        <mxCell id="QWG24ldM00-je0MgfPXb-10" value="" style="endArrow=classic;html=1;rounded=0;fontFamily=Comic Sans MS;exitX=1;exitY=0.5;exitDx=0;exitDy=0;entryX=0;entryY=0.5;entryDx=0;entryDy=0;sketch=1;fillColor=#dae8fc;strokeColor=#6c8ebf;" parent="1" source="QWG24ldM00-je0MgfPXb-1" target="QWG24ldM00-je0MgfPXb-9" edge="1">
          <mxGeometry width="50" height="50" relative="1" as="geometry">
            <mxPoint x="450" y="390" as="sourcePoint" />
            <mxPoint x="500" y="340" as="targetPoint" />
          </mxGeometry>
        </mxCell>
        <mxCell id="QWG24ldM00-je0MgfPXb-11" value="Metrics&lt;br&gt;client" style="ellipse;whiteSpace=wrap;html=1;sketch=1;fillStyle=auto;fontFamily=Comic Sans MS;fillColor=#dae8fc;strokeColor=#6c8ebf;" parent="1" vertex="1">
          <mxGeometry x="590" y="410" width="120" height="60" as="geometry" />
        </mxCell>
        <mxCell id="QWG24ldM00-je0MgfPXb-12" value="" style="endArrow=classic;html=1;rounded=0;fontFamily=Comic Sans MS;exitX=1;exitY=0.5;exitDx=0;exitDy=0;entryX=0;entryY=0.5;entryDx=0;entryDy=0;sketch=1;fillColor=#dae8fc;strokeColor=#6c8ebf;" parent="1" source="QWG24ldM00-je0MgfPXb-9" target="QWG24ldM00-je0MgfPXb-11" edge="1">
          <mxGeometry width="50" height="50" relative="1" as="geometry">
            <mxPoint x="560" y="590" as="sourcePoint" />
            <mxPoint x="610" y="540" as="targetPoint" />
          </mxGeometry>
        </mxCell>
        <mxCell id="QWG24ldM00-je0MgfPXb-14" value="RS" style="rounded=0;whiteSpace=wrap;html=1;sketch=1;fillStyle=auto;fontFamily=Comic Sans MS;fillColor=#dae8fc;strokeColor=#6c8ebf;" parent="1" vertex="1">
          <mxGeometry x="590" y="250" width="120" height="50" as="geometry" />
        </mxCell>
        <mxCell id="QWG24ldM00-je0MgfPXb-15" value="" style="endArrow=classic;html=1;rounded=0;sketch=1;fontFamily=Comic Sans MS;fillColor=#dae8fc;strokeColor=#6c8ebf;entryX=0;entryY=0.5;entryDx=0;entryDy=0;" parent="1" source="QWG24ldM00-je0MgfPXb-3" edge="1" target="QWG24ldM00-je0MgfPXb-14">
          <mxGeometry width="50" height="50" relative="1" as="geometry">
            <mxPoint x="590" y="345" as="sourcePoint" />
            <mxPoint x="630" y="295" as="targetPoint" />
          </mxGeometry>
        </mxCell>
        <mxCell id="QWG24ldM00-je0MgfPXb-16" value="GetRawMetrics" style="rounded=0;whiteSpace=wrap;html=1;sketch=1;fillStyle=auto;fontFamily=Comic Sans MS;fillColor=#dae8fc;strokeColor=#6c8ebf;" parent="1" vertex="1">
          <mxGeometry x="750" y="380" width="120" height="50" as="geometry" />
        </mxCell>
        <mxCell id="QWG24ldM00-je0MgfPXb-17" value="GetObjectMetrics" style="rounded=0;whiteSpace=wrap;html=1;sketch=1;fillStyle=auto;fontFamily=Comic Sans MS;fillColor=#dae8fc;strokeColor=#6c8ebf;" parent="1" vertex="1">
          <mxGeometry x="750" y="450" width="120" height="50" as="geometry" />
        </mxCell>
        <mxCell id="QWG24ldM00-je0MgfPXb-18" value="" style="endArrow=classic;html=1;rounded=0;sketch=1;fontFamily=Comic Sans MS;exitX=1;exitY=0.5;exitDx=0;exitDy=0;entryX=0;entryY=0.5;entryDx=0;entryDy=0;fillColor=#dae8fc;strokeColor=#6c8ebf;" parent="1" source="QWG24ldM00-je0MgfPXb-11" target="QWG24ldM00-je0MgfPXb-16" edge="1">
          <mxGeometry width="50" height="50" relative="1" as="geometry">
            <mxPoint x="710" y="550" as="sourcePoint" />
            <mxPoint x="760" y="500" as="targetPoint" />
          </mxGeometry>
        </mxCell>
        <mxCell id="QWG24ldM00-je0MgfPXb-19" value="" style="endArrow=classic;html=1;rounded=0;sketch=1;fontFamily=Comic Sans MS;entryX=0;entryY=0.5;entryDx=0;entryDy=0;fillColor=#dae8fc;strokeColor=#6c8ebf;" parent="1" target="QWG24ldM00-je0MgfPXb-17" edge="1">
          <mxGeometry width="50" height="50" relative="1" as="geometry">
            <mxPoint x="710" y="450" as="sourcePoint" />
            <mxPoint x="760" y="510" as="targetPoint" />
          </mxGeometry>
        </mxCell>
        <mxCell id="QWG24ldM00-je0MgfPXb-20" value="Pod 1" style="rounded=0;whiteSpace=wrap;html=1;sketch=1;fillStyle=auto;fontFamily=Comic Sans MS;fillColor=#dae8fc;strokeColor=#6c8ebf;" parent="1" vertex="1">
          <mxGeometry x="750" y="180" width="120" height="50" as="geometry" />
        </mxCell>
        <mxCell id="QWG24ldM00-je0MgfPXb-21" value="Pod ..." style="rounded=0;whiteSpace=wrap;html=1;sketch=1;fillStyle=auto;fontFamily=Comic Sans MS;fillColor=#dae8fc;strokeColor=#6c8ebf;" parent="1" vertex="1">
          <mxGeometry x="750" y="252.5" width="120" height="47.5" as="geometry" />
        </mxCell>
        <mxCell id="QWG24ldM00-je0MgfPXb-22" value="Pod N" style="rounded=0;whiteSpace=wrap;html=1;sketch=1;fillStyle=auto;fontFamily=Comic Sans MS;fillColor=#dae8fc;strokeColor=#6c8ebf;" parent="1" vertex="1">
          <mxGeometry x="750" y="310" width="120" height="50" as="geometry" />
        </mxCell>
        <mxCell id="QWG24ldM00-je0MgfPXb-23" value="" style="endArrow=classic;html=1;rounded=0;sketch=1;fontFamily=Comic Sans MS;entryX=0;entryY=0.5;entryDx=0;entryDy=0;fillColor=#dae8fc;strokeColor=#6c8ebf;exitX=1;exitY=0.5;exitDx=0;exitDy=0;" parent="1" target="QWG24ldM00-je0MgfPXb-20" edge="1" source="QWG24ldM00-je0MgfPXb-14">
          <mxGeometry width="50" height="50" relative="1" as="geometry">
            <mxPoint x="710" y="295" as="sourcePoint" />
            <mxPoint x="760" y="245" as="targetPoint" />
          </mxGeometry>
        </mxCell>
        <mxCell id="QWG24ldM00-je0MgfPXb-24" value="" style="endArrow=classic;html=1;rounded=0;sketch=1;fontFamily=Comic Sans MS;exitX=1;exitY=0.5;exitDx=0;exitDy=0;fillColor=#dae8fc;strokeColor=#6c8ebf;" parent="1" source="QWG24ldM00-je0MgfPXb-14" target="QWG24ldM00-je0MgfPXb-21" edge="1">
          <mxGeometry width="50" height="50" relative="1" as="geometry">
            <mxPoint x="540" y="295" as="sourcePoint" />
            <mxPoint x="590" y="245" as="targetPoint" />
          </mxGeometry>
        </mxCell>
        <mxCell id="QWG24ldM00-je0MgfPXb-25" value="" style="endArrow=classic;html=1;rounded=0;sketch=1;fontFamily=Comic Sans MS;entryX=0;entryY=0.5;entryDx=0;entryDy=0;fillColor=#dae8fc;strokeColor=#6c8ebf;exitX=1;exitY=0.5;exitDx=0;exitDy=0;" parent="1" target="QWG24ldM00-je0MgfPXb-22" edge="1" source="QWG24ldM00-je0MgfPXb-14">
          <mxGeometry width="50" height="50" relative="1" as="geometry">
            <mxPoint x="710" y="295" as="sourcePoint" />
            <mxPoint x="590" y="245" as="targetPoint" />
          </mxGeometry>
        </mxCell>
        <mxCell id="QWG24ldM00-je0MgfPXb-26" value="custom.metrics&lt;br&gt;.k8s.io" style="rounded=0;whiteSpace=wrap;html=1;sketch=1;fillStyle=auto;fontFamily=Comic Sans MS;fillColor=#dae8fc;strokeColor=#6c8ebf;" parent="1" vertex="1">
          <mxGeometry x="910" y="380" width="120" height="50" as="geometry" />
        </mxCell>
        <mxCell id="QWG24ldM00-je0MgfPXb-27" value="Custom API Server" style="rounded=0;whiteSpace=wrap;html=1;sketch=1;fillStyle=auto;fontFamily=Comic Sans MS;fillColor=#ffe6cc;strokeColor=#d79b00;" parent="1" vertex="1">
          <mxGeometry x="1080" y="380" width="120" height="50" as="geometry" />
        </mxCell>
        <mxCell id="QWG24ldM00-je0MgfPXb-28" value="Prometheus Server" style="rounded=0;whiteSpace=wrap;html=1;sketch=1;fillStyle=auto;fontFamily=Comic Sans MS;fillColor=#dae8fc;strokeColor=#6c8ebf;" parent="1" vertex="1">
          <mxGeometry x="1080" y="630" width="120" height="50" as="geometry" />
        </mxCell>
        <mxCell id="QWG24ldM00-je0MgfPXb-29" value="eBPF Exporter" style="rounded=0;whiteSpace=wrap;html=1;sketch=1;fillStyle=auto;fontFamily=Comic Sans MS;fillColor=#dae8fc;strokeColor=#6c8ebf;" parent="1" vertex="1">
          <mxGeometry x="910" y="630" width="120" height="50" as="geometry" />
        </mxCell>
        <mxCell id="QWG24ldM00-je0MgfPXb-42" value="eBPF Cluster Collector" style="rounded=0;whiteSpace=wrap;html=1;sketch=1;fillStyle=auto;fontFamily=Comic Sans MS;fillColor=#ffe6cc;strokeColor=#d79b00;" parent="1" vertex="1">
          <mxGeometry x="1080" y="535" width="120" height="45" as="geometry" />
        </mxCell>
        <mxCell id="QWG24ldM00-je0MgfPXb-43" value="&lt;span style=&quot;&quot;&gt;eBPF Node&lt;br&gt;Collector&lt;br&gt;&lt;/span&gt;" style="rounded=0;whiteSpace=wrap;html=1;sketch=1;fillStyle=auto;fontFamily=Comic Sans MS;fillColor=#ffe6cc;strokeColor=#d79b00;" parent="1" vertex="1">
          <mxGeometry x="910" y="535" width="120" height="45" as="geometry" />
        </mxCell>
        <mxCell id="UNG5OgYsjP5_AlQKyO2s-38" value="" style="group" vertex="1" connectable="0" parent="1">
          <mxGeometry x="680" y="535" width="170" height="170" as="geometry" />
        </mxCell>
        <mxCell id="UNG5OgYsjP5_AlQKyO2s-26" value="" style="whiteSpace=wrap;html=1;aspect=fixed;sketch=1;fillStyle=auto;fontFamily=Comic Sans MS;fillColor=#ffe6cc;strokeColor=#d79b00;" vertex="1" parent="UNG5OgYsjP5_AlQKyO2s-38">
          <mxGeometry width="170" height="170" as="geometry" />
        </mxCell>
        <mxCell id="UNG5OgYsjP5_AlQKyO2s-27" value="BPF byte code" style="rounded=0;whiteSpace=wrap;html=1;sketch=1;fillStyle=auto;fontFamily=Comic Sans MS;" vertex="1" parent="UNG5OgYsjP5_AlQKyO2s-38">
          <mxGeometry x="25" y="12.5" width="120" height="20" as="geometry" />
        </mxCell>
        <mxCell id="UNG5OgYsjP5_AlQKyO2s-28" value="per event data" style="rounded=0;whiteSpace=wrap;html=1;sketch=1;fillStyle=auto;fontFamily=Comic Sans MS;" vertex="1" parent="UNG5OgYsjP5_AlQKyO2s-38">
          <mxGeometry x="25" y="70" width="120" height="20" as="geometry" />
        </mxCell>
        <mxCell id="UNG5OgYsjP5_AlQKyO2s-29" value="statistics" style="rounded=0;whiteSpace=wrap;html=1;sketch=1;fillStyle=auto;fontFamily=Comic Sans MS;" vertex="1" parent="UNG5OgYsjP5_AlQKyO2s-38">
          <mxGeometry x="25" y="135" width="120" height="20" as="geometry" />
        </mxCell>
        <mxCell id="UNG5OgYsjP5_AlQKyO2s-39" value="" style="endArrow=classic;html=1;rounded=0;sketch=1;fontFamily=Comic Sans MS;exitX=0;exitY=0.5;exitDx=0;exitDy=0;entryX=1.006;entryY=0.394;entryDx=0;entryDy=0;entryPerimeter=0;" edge="1" parent="1" source="QWG24ldM00-je0MgfPXb-43" target="UNG5OgYsjP5_AlQKyO2s-26">
          <mxGeometry relative="1" as="geometry">
            <mxPoint x="790" y="560" as="sourcePoint" />
            <mxPoint x="850" y="600" as="targetPoint" />
          </mxGeometry>
        </mxCell>
        <mxCell id="UNG5OgYsjP5_AlQKyO2s-64" value="" style="edgeStyle=orthogonalEdgeStyle;rounded=0;sketch=1;orthogonalLoop=1;jettySize=auto;html=1;fontFamily=Comic Sans MS;exitX=1;exitY=0.5;exitDx=0;exitDy=0;" edge="1" parent="1" source="UNG5OgYsjP5_AlQKyO2s-23" target="UNG5OgYsjP5_AlQKyO2s-28">
          <mxGeometry relative="1" as="geometry" />
        </mxCell>
        <object label="" id="QWG24ldM00-je0MgfPXb-30">
          <mxCell style="rounded=0;whiteSpace=wrap;html=1;sketch=1;fillStyle=auto;fontFamily=Comic Sans MS;fillColor=#dae8fc;strokeColor=#6c8ebf;align=left;spacingTop=-120;" parent="1" vertex="1">
            <mxGeometry x="270" y="535" width="320" height="170" as="geometry" />
          </mxCell>
        </object>
        <mxCell id="UNG5OgYsjP5_AlQKyO2s-10" value="kprobes" style="rounded=0;whiteSpace=wrap;html=1;sketch=1;fillStyle=auto;fontFamily=Comic Sans MS;" vertex="1" parent="1">
          <mxGeometry x="280" y="547.5" width="120" height="20" as="geometry" />
        </mxCell>
        <mxCell id="UNG5OgYsjP5_AlQKyO2s-19" value="uprobes" style="rounded=0;whiteSpace=wrap;html=1;sketch=1;fillStyle=auto;fontFamily=Comic Sans MS;" vertex="1" parent="1">
          <mxGeometry x="280" y="590" width="120" height="20" as="geometry" />
        </mxCell>
        <mxCell id="UNG5OgYsjP5_AlQKyO2s-20" value="tracepoints" style="rounded=0;whiteSpace=wrap;html=1;sketch=1;fillStyle=auto;fontFamily=Comic Sans MS;" vertex="1" parent="1">
          <mxGeometry x="280" y="630" width="120" height="20" as="geometry" />
        </mxCell>
        <mxCell id="UNG5OgYsjP5_AlQKyO2s-21" value="Linux Kernal" style="text;html=1;strokeColor=none;fillColor=none;align=center;verticalAlign=middle;whiteSpace=wrap;rounded=0;sketch=1;fillStyle=auto;fontFamily=Comic Sans MS;" vertex="1" parent="1">
          <mxGeometry x="370" y="495" width="110" height="30" as="geometry" />
        </mxCell>
        <mxCell id="UNG5OgYsjP5_AlQKyO2s-22" value="verifier" style="rounded=0;whiteSpace=wrap;html=1;sketch=1;fillStyle=auto;fontFamily=Comic Sans MS;" vertex="1" parent="1">
          <mxGeometry x="440" y="547.5" width="120" height="20" as="geometry" />
        </mxCell>
        <mxCell id="UNG5OgYsjP5_AlQKyO2s-23" value="BPF" style="rounded=0;whiteSpace=wrap;html=1;sketch=1;fillStyle=auto;fontFamily=Comic Sans MS;" vertex="1" parent="1">
          <mxGeometry x="440" y="590" width="120" height="50" as="geometry" />
        </mxCell>
        <mxCell id="UNG5OgYsjP5_AlQKyO2s-24" value="maps" style="rounded=0;whiteSpace=wrap;html=1;sketch=1;fillStyle=auto;fontFamily=Comic Sans MS;" vertex="1" parent="1">
          <mxGeometry x="440" y="670" width="120" height="20" as="geometry" />
        </mxCell>
        <mxCell id="UNG5OgYsjP5_AlQKyO2s-47" value="" style="endArrow=classic;html=1;rounded=0;sketch=1;fontFamily=Comic Sans MS;exitX=0;exitY=0.5;exitDx=0;exitDy=0;entryX=0.994;entryY=0.541;entryDx=0;entryDy=0;entryPerimeter=0;" edge="1" parent="1" source="QWG24ldM00-je0MgfPXb-29" target="UNG5OgYsjP5_AlQKyO2s-26">
          <mxGeometry relative="1" as="geometry">
            <mxPoint x="827" y="589.5" as="sourcePoint" />
            <mxPoint x="927" y="589.5" as="targetPoint" />
          </mxGeometry>
        </mxCell>
        <mxCell id="UNG5OgYsjP5_AlQKyO2s-53" value="" style="endArrow=none;html=1;rounded=0;sketch=1;fontFamily=Comic Sans MS;exitX=1;exitY=0.5;exitDx=0;exitDy=0;entryX=0;entryY=0.25;entryDx=0;entryDy=0;" edge="1" parent="1" source="UNG5OgYsjP5_AlQKyO2s-10" target="UNG5OgYsjP5_AlQKyO2s-23">
          <mxGeometry width="50" height="50" relative="1" as="geometry">
            <mxPoint x="820" y="520" as="sourcePoint" />
            <mxPoint x="780" y="530" as="targetPoint" />
          </mxGeometry>
        </mxCell>
        <mxCell id="UNG5OgYsjP5_AlQKyO2s-54" value="" style="endArrow=none;html=1;rounded=0;sketch=1;fontFamily=Comic Sans MS;exitX=1;exitY=0.75;exitDx=0;exitDy=0;" edge="1" parent="1" source="UNG5OgYsjP5_AlQKyO2s-19" target="UNG5OgYsjP5_AlQKyO2s-23">
          <mxGeometry width="50" height="50" relative="1" as="geometry">
            <mxPoint x="410" y="575" as="sourcePoint" />
            <mxPoint x="440" y="625" as="targetPoint" />
          </mxGeometry>
        </mxCell>
        <mxCell id="UNG5OgYsjP5_AlQKyO2s-55" value="" style="endArrow=none;html=1;rounded=0;sketch=1;fontFamily=Comic Sans MS;exitX=1;exitY=0.5;exitDx=0;exitDy=0;entryX=0;entryY=0.5;entryDx=0;entryDy=0;" edge="1" parent="1" source="UNG5OgYsjP5_AlQKyO2s-20" target="UNG5OgYsjP5_AlQKyO2s-23">
          <mxGeometry width="50" height="50" relative="1" as="geometry">
            <mxPoint x="410" y="635" as="sourcePoint" />
            <mxPoint x="440" y="620" as="targetPoint" />
          </mxGeometry>
        </mxCell>
        <mxCell id="UNG5OgYsjP5_AlQKyO2s-57" value="" style="endArrow=classic;html=1;rounded=0;sketch=1;fontFamily=Comic Sans MS;exitX=0;exitY=0.5;exitDx=0;exitDy=0;entryX=1;entryY=0.5;entryDx=0;entryDy=0;" edge="1" parent="1" source="UNG5OgYsjP5_AlQKyO2s-27" target="UNG5OgYsjP5_AlQKyO2s-22">
          <mxGeometry width="50" height="50" relative="1" as="geometry">
            <mxPoint x="820" y="520" as="sourcePoint" />
            <mxPoint x="870" y="470" as="targetPoint" />
          </mxGeometry>
        </mxCell>
        <mxCell id="UNG5OgYsjP5_AlQKyO2s-58" value="" style="endArrow=classic;html=1;rounded=0;sketch=1;fontFamily=Comic Sans MS;exitX=0.5;exitY=1;exitDx=0;exitDy=0;entryX=0.5;entryY=0;entryDx=0;entryDy=0;" edge="1" parent="1" source="UNG5OgYsjP5_AlQKyO2s-22" target="UNG5OgYsjP5_AlQKyO2s-23">
          <mxGeometry width="50" height="50" relative="1" as="geometry">
            <mxPoint x="820" y="520" as="sourcePoint" />
            <mxPoint x="560" y="625" as="targetPoint" />
          </mxGeometry>
        </mxCell>
        <mxCell id="UNG5OgYsjP5_AlQKyO2s-59" value="pref events" style="rounded=0;whiteSpace=wrap;html=1;sketch=1;fillStyle=auto;fontFamily=Comic Sans MS;" vertex="1" parent="1">
          <mxGeometry x="280" y="670" width="120" height="20" as="geometry" />
        </mxCell>
        <mxCell id="UNG5OgYsjP5_AlQKyO2s-60" value="" style="endArrow=none;html=1;rounded=0;sketch=1;fontFamily=Comic Sans MS;exitX=1;exitY=0.5;exitDx=0;exitDy=0;entryX=0;entryY=0.75;entryDx=0;entryDy=0;" edge="1" parent="1" source="UNG5OgYsjP5_AlQKyO2s-59" target="UNG5OgYsjP5_AlQKyO2s-23">
          <mxGeometry width="50" height="50" relative="1" as="geometry">
            <mxPoint x="820" y="520" as="sourcePoint" />
            <mxPoint x="870" y="470" as="targetPoint" />
          </mxGeometry>
        </mxCell>
        <mxCell id="UNG5OgYsjP5_AlQKyO2s-68" value="load" style="edgeLabel;resizable=0;html=1;align=center;verticalAlign=middle;sketch=1;fillStyle=auto;fontFamily=Comic Sans MS;" connectable="0" vertex="1" parent="1">
          <mxGeometry x="620" y="525" as="geometry">
            <mxPoint x="9" y="18" as="offset" />
          </mxGeometry>
        </mxCell>
        <mxCell id="UNG5OgYsjP5_AlQKyO2s-69" value="pref output" style="edgeLabel;resizable=0;html=1;align=center;verticalAlign=middle;sketch=1;fillStyle=auto;fontFamily=Comic Sans MS;" connectable="0" vertex="1" parent="1">
          <mxGeometry x="620" y="585" as="geometry">
            <mxPoint x="9" y="18" as="offset" />
          </mxGeometry>
        </mxCell>
        <mxCell id="UNG5OgYsjP5_AlQKyO2s-70" value="async" style="edgeLabel;resizable=0;html=1;align=center;verticalAlign=middle;sketch=1;fillStyle=auto;fontFamily=Comic Sans MS;" connectable="0" vertex="1" parent="1">
          <mxGeometry x="620" y="650" as="geometry">
            <mxPoint x="9" y="18" as="offset" />
          </mxGeometry>
        </mxCell>
        <mxCell id="UNG5OgYsjP5_AlQKyO2s-71" value="" style="endArrow=classic;startArrow=classic;html=1;rounded=0;sketch=1;fontFamily=Comic Sans MS;exitX=1;exitY=0.5;exitDx=0;exitDy=0;" edge="1" parent="1" source="UNG5OgYsjP5_AlQKyO2s-24">
          <mxGeometry width="50" height="50" relative="1" as="geometry">
            <mxPoint x="820" y="520" as="sourcePoint" />
            <mxPoint x="700" y="680" as="targetPoint" />
          </mxGeometry>
        </mxCell>
        <mxCell id="UNG5OgYsjP5_AlQKyO2s-72" value="read" style="edgeLabel;resizable=0;html=1;align=center;verticalAlign=middle;sketch=1;fillStyle=auto;fontFamily=Comic Sans MS;" connectable="0" vertex="1" parent="1">
          <mxGeometry x="620" y="677.5" as="geometry">
            <mxPoint x="9" y="18" as="offset" />
          </mxGeometry>
        </mxCell>
        <mxCell id="UNG5OgYsjP5_AlQKyO2s-73" value="" style="endArrow=classic;startArrow=classic;html=1;rounded=0;sketch=1;fontFamily=Comic Sans MS;exitX=0.5;exitY=1;exitDx=0;exitDy=0;" edge="1" parent="1" source="UNG5OgYsjP5_AlQKyO2s-23" target="UNG5OgYsjP5_AlQKyO2s-24">
          <mxGeometry width="50" height="50" relative="1" as="geometry">
            <mxPoint x="570" y="690" as="sourcePoint" />
            <mxPoint x="710" y="690" as="targetPoint" />
          </mxGeometry>
        </mxCell>
        <mxCell id="UNG5OgYsjP5_AlQKyO2s-74" value="" style="endArrow=classic;html=1;rounded=0;sketch=1;fontFamily=Comic Sans MS;entryX=0.5;entryY=0;entryDx=0;entryDy=0;" edge="1" parent="1" source="QWG24ldM00-je0MgfPXb-27" target="QWG24ldM00-je0MgfPXb-42">
          <mxGeometry width="50" height="50" relative="1" as="geometry">
            <mxPoint x="820" y="520" as="sourcePoint" />
            <mxPoint x="1210" y="490" as="targetPoint" />
          </mxGeometry>
        </mxCell>
        <mxCell id="UNG5OgYsjP5_AlQKyO2s-75" value="" style="endArrow=classic;html=1;rounded=0;sketch=1;fontFamily=Comic Sans MS;entryX=1;entryY=0.5;entryDx=0;entryDy=0;" edge="1" parent="1" target="QWG24ldM00-je0MgfPXb-28">
          <mxGeometry width="50" height="50" relative="1" as="geometry">
            <mxPoint x="1200" y="400" as="sourcePoint" />
            <mxPoint x="1200" y="650" as="targetPoint" />
            <Array as="points">
              <mxPoint x="1240" y="400" />
              <mxPoint x="1240" y="655" />
            </Array>
          </mxGeometry>
        </mxCell>
        <mxCell id="UNG5OgYsjP5_AlQKyO2s-76" value="" style="endArrow=classic;html=1;rounded=0;sketch=1;fontFamily=Comic Sans MS;entryX=1;entryY=0.5;entryDx=0;entryDy=0;exitX=0;exitY=0.5;exitDx=0;exitDy=0;" edge="1" parent="1" source="QWG24ldM00-je0MgfPXb-42" target="QWG24ldM00-je0MgfPXb-43">
          <mxGeometry width="50" height="50" relative="1" as="geometry">
            <mxPoint x="1150" y="440" as="sourcePoint" />
            <mxPoint x="1150" y="545" as="targetPoint" />
          </mxGeometry>
        </mxCell>
        <mxCell id="UNG5OgYsjP5_AlQKyO2s-77" value="" style="endArrow=classic;html=1;rounded=0;sketch=1;fontFamily=Comic Sans MS;entryX=1;entryY=0.5;entryDx=0;entryDy=0;exitX=0;exitY=0.5;exitDx=0;exitDy=0;" edge="1" parent="1" source="QWG24ldM00-je0MgfPXb-28" target="QWG24ldM00-je0MgfPXb-29">
          <mxGeometry width="50" height="50" relative="1" as="geometry">
            <mxPoint x="1090" y="567.5" as="sourcePoint" />
            <mxPoint x="1040" y="567.5" as="targetPoint" />
          </mxGeometry>
        </mxCell>
        <mxCell id="UNG5OgYsjP5_AlQKyO2s-80" value="User program" style="text;html=1;strokeColor=none;fillColor=none;align=center;verticalAlign=middle;whiteSpace=wrap;rounded=0;sketch=1;fillStyle=auto;fontFamily=Comic Sans MS;" vertex="1" parent="1">
          <mxGeometry x="710" y="500" width="110" height="30" as="geometry" />
        </mxCell>
        <mxCell id="UNG5OgYsjP5_AlQKyO2s-82" value="" style="endArrow=classic;html=1;rounded=0;sketch=1;fontFamily=Comic Sans MS;exitX=1;exitY=0.5;exitDx=0;exitDy=0;entryX=0;entryY=0.5;entryDx=0;entryDy=0;" edge="1" parent="1" source="QWG24ldM00-je0MgfPXb-16" target="QWG24ldM00-je0MgfPXb-26">
          <mxGeometry width="50" height="50" relative="1" as="geometry">
            <mxPoint x="820" y="520" as="sourcePoint" />
            <mxPoint x="870" y="470" as="targetPoint" />
          </mxGeometry>
        </mxCell>
        <mxCell id="UNG5OgYsjP5_AlQKyO2s-83" value="" style="endArrow=classic;html=1;rounded=0;sketch=1;fontFamily=Comic Sans MS;exitX=1;exitY=0.5;exitDx=0;exitDy=0;entryX=0;entryY=0.5;entryDx=0;entryDy=0;" edge="1" parent="1" source="QWG24ldM00-je0MgfPXb-17" target="QWG24ldM00-je0MgfPXb-26">
          <mxGeometry width="50" height="50" relative="1" as="geometry">
            <mxPoint x="880" y="415" as="sourcePoint" />
            <mxPoint x="920" y="415" as="targetPoint" />
          </mxGeometry>
        </mxCell>
        <mxCell id="UNG5OgYsjP5_AlQKyO2s-84" value="" style="endArrow=classic;html=1;rounded=0;sketch=1;fontFamily=Comic Sans MS;entryX=0;entryY=0.5;entryDx=0;entryDy=0;exitX=1;exitY=0.5;exitDx=0;exitDy=0;" edge="1" parent="1" source="QWG24ldM00-je0MgfPXb-26" target="QWG24ldM00-je0MgfPXb-27">
          <mxGeometry width="50" height="50" relative="1" as="geometry">
            <mxPoint x="1020" y="405" as="sourcePoint" />
            <mxPoint x="920" y="415" as="targetPoint" />
          </mxGeometry>
        </mxCell>
      </root>
    </mxGraphModel>
  </diagram>
</mxfile>
